PathFileType	4	(x/y/z)	S09_M20_T07
DataRate	CameraRate	NumFrames	NumMarkers	Units	OrigDataRate	OrigDataStartFrame	OrigNumFrames
240	240	4	51	mm	240	72	570
Frame#	Time	Sternum			R.Acromium			L.Acromium			Top.Head			R.ASIS			L.ASIS			R.PSIS			L.PSIS			R.Great.Tro			L.Great.Tro			R.Iliac.Crest			L.Iliac.Crest			V.Sacral			R.Thigh.Upper.Post			R.Thigh.Lower.Ant			R.Thigh.Lower.Post			R.Thigh.Upper.Ant			R.Knee.Lat			R.Knee.Med			R.Shank.Upper.Post			R.Shank.Lower.Ant			R.Shank.Lower.Post			R.Shank.Upper.Ant			R.Ankle.Lat			R.Ankle.Med			R.Heel.Upper			R.Heel.Med			R.Heel.Lat			R.Toe.Lat			R.Toe.Med			R.Toe.Tip			L.Thigh.Upper.Post			L.Thigh.Lower.Ant			L.Thigh.Lower.Post			L.Thigh.Upper.Ant			L.Knee.Lat			L.Knee.Med			L.Shank.Upper.Post			L.Shank.Lower.Ant			L.Shank.Lower.Post			L.Shank.Upper.Ant			L.Ankle.Lat			L.Ankle.Med			L.Heel.Upper			L.Heel.Med			L.Heel.Lat			L.Toe.Lat			L.Toe.Med			L.Toe.Tip			Cervical.Spine			Back			
		X1	Y1	Z1	X2	Y2	Z2	X3	Y3	Z3	X4	Y4	Z4	X5	Y5	Z5	X6	Y6	Z6	X7	Y7	Z7	X8	Y8	Z8	X9	Y9	Z9	X10	Y10	Z10	X11	Y11	Z11	X12	Y12	Z12	X13	Y13	Z13	X14	Y14	Z14	X15	Y15	Z15	X16	Y16	Z16	X17	Y17	Z17	X18	Y18	Z18	X19	Y19	Z19	X20	Y20	Z20	X21	Y21	Z21	X22	Y22	Z22	X23	Y23	Z23	X24	Y24	Z24	X25	Y25	Z25	X26	Y26	Z26	X27	Y27	Z27	X28	Y28	Z28	X29	Y29	Z29	X30	Y30	Z30	X31	Y31	Z31	X32	Y32	Z32	X33	Y33	Z33	X34	Y34	Z34	X35	Y35	Z35	X36	Y36	Z36	X37	Y37	Z37	X38	Y38	Z38	X39	Y39	Z39	X40	Y40	Z40	X41	Y41	Z41	X42	Y42	Z42	X43	Y43	Z43	X44	Y44	Z44	X45	Y45	Z45	X46	Y46	Z46	X47	Y47	Z47	X48	Y48	Z48	X49	Y49	Z49	X50	Y50	Z50	X51	Y51	Z51	

72	0.29583	-482.91	1177.1	288.2	-631.63	1413.5	434.68	-635.11	1413.8	126.56	-659.1	1712.1	267.58	-531.45	990.84	401.64	-517.97	1008.9	155.8	-747.8	1022.3	312.47	-735.65	1029.8	223.47	-625.18	901.08	465.12	-572.49	921.86	80.604	-623.06	1071	442.76	-627.14	1102.6	117.71	-760.64	991.55	259.84	-647.23	655.25	457.89	-579.52	545.83	445.86	-656.78	562.18	439.18	-577.89	636.12	460.01	-622.12	470.1	441.17	NaN	NaN	NaN	-799.11	421.11	434.19	-813.1	331.25	422.97	-863.03	381.96	417.11	-754.55	373.73	440.19	-1006.5	264.15	387.35	-968.82	238.44	310.36	-1040.8	311.1	324.42	-1056.3	287.03	291.22	-1074.6	296.07	353.12	-1033.5	148.57	424.15	-983.03	106.33	333.2	-961.51	70.519	385.55	-577.63	650.77	132.81	-476.4	578.43	151.03	-543.63	570.01	161.72	-506.86	655.8	117.96	-476.64	500.84	164.78	-468.91	523.36	297.82	-524.6	371	156.19	-465.43	279.75	177.21	-527.79	294.61	166.24	-462.96	357.15	168.23	-525.14	99.564	196.85	-509.42	96.289	290.23	-596.09	69.534	251.2	-580.53	45.886	284.57	-595.18	38.843	224.59	-423.99	43.163	165.17	-382.01	47.735	273.55	-335.97	67.402	211.54	-717.8	1458.9	291.94	-748.64	1187.4	279.29
73	0.3	-478.23	1177.9	287.81	-626.44	1414.5	434.29	-629.67	1415.1	126.24	-654.11	1713.1	267.3	-526.71	992	401.17	-513.41	1009.7	155.33	-743.13	1023.3	311.87	-730.97	1030.9	222.89	-620.3	902.17	464.57	-568.15	922.53	80.19	-618.56	1072	442.27	-622.53	1103.5	117.07	-756	992.62	259.25	-639.17	656.07	457.87	-570.16	547.42	446.05	-647.69	562.87	439.22	-569.6	637.7	460.02	-612	471.18	441.29	NaN	NaN	NaN	-788.7	421.79	434.35	-802.55	331.93	422.98	-852.61	382.57	417.3	-744.05	374.48	440.18	-995.99	264.69	387.32	-958.27	239.04	310.41	-1030.8	311.19	324.34	-1046.1	286.92	291.21	-1064.4	295.93	353.12	-1021.9	149.05	424.44	-971.03	107.09	333.49	-949.1	71.685	385.88	-575.05	651.46	132.49	-474.31	578.43	150.48	-541.62	570.5	161.31	-504.27	656.03	117.5	-475.08	500.82	164.31	-467.04	523.36	297.31	-523.62	371.1	155.87	-464.73	279.66	176.83	-527.08	294.74	165.97	-462.01	357.04	167.79	-524.99	99.603	196.76	-509.23	96.432	290.1	-596.01	69.641	251.18	-580.49	45.983	284.55	-595.14	38.967	224.57	-423.94	43.036	165.06	-381.94	47.585	273.43	-335.85	67.012	211.41	-712.49	1460.2	291.54	-743.84	1188.7	278.51
74	0.30417	-473.6	1178.7	287.42	-621.28	1415.6	433.91	-624.24	1416.4	125.92	-649.12	1714.1	267.04	-521.99	993.17	400.71	-508.86	1010.6	154.85	-738.48	1024.3	311.3	-726.31	1031.9	222.34	-615.43	903.25	464.03	-563.84	923.2	79.787	-614.1	1073.1	441.81	-617.94	1104.4	116.45	-751.37	993.69	258.71	-631.12	656.91	457.84	-560.81	549.06	446.21	-638.61	563.6	439.25	-561.31	639.31	460.03	-601.9	472.32	441.37	NaN	NaN	NaN	-778.31	422.43	434.46	-791.95	332.56	423	-842.17	383.09	417.47	-733.53	375.23	440.16	-985.39	265.04	387.3	-947.6	239.44	310.51	-1020.7	311.05	324.26	-1035.8	286.55	291.2	-1054.1	295.54	353.11	-1010	149.35	424.78	-958.84	107.67	333.86	-936.5	72.711	386.32	-572.51	652.16	132.18	-472.25	578.44	149.92	-539.65	571	160.88	-501.71	656.27	117.06	-473.54	500.82	163.83	-465.2	523.37	296.81	-522.64	371.2	155.52	-464.04	279.57	176.45	-526.36	294.88	165.69	-461.06	356.93	167.35	-524.84	99.644	196.67	-509.03	96.584	289.98	-595.93	69.752	251.15	-580.46	46.084	284.53	-595.09	39.096	224.54	-423.89	42.904	164.95	-381.88	47.441	273.31	-335.72	66.62	211.27	-707.21	1461.4	291.15	-739.07	1190.1	277.75
75	0.30833	-468.99	1179.5	287.05	-616.13	1416.5	433.52	-618.81	1417.7	125.61	-644.13	1715.1	266.79	-517.28	994.33	400.24	-504.33	1011.4	154.38	-733.84	1025.4	310.76	-721.67	1032.9	221.82	-610.55	904.34	463.52	-559.56	923.88	79.39	-609.68	1074.2	441.4	-613.37	1105.3	115.85	-746.75	994.74	258.2	-623.08	657.77	457.81	-551.47	550.74	446.36	-629.54	564.37	439.27	-553.03	640.95	460.04	-591.82	473.51	441.42	NaN	NaN	NaN	-767.94	423.04	434.52	-781.3	333.14	423.04	-831.71	383.53	417.61	-723	375.99	440.14	-974.69	265.2	387.32	-936.82	239.63	310.65	-1010.5	310.67	324.18	-1025.3	285.92	291.2	-1043.8	294.92	353.1	-998.09	149.47	425.17	-946.47	108.05	334.32	-923.72	73.594	386.87	-570	652.86	131.87	-470.23	578.45	149.36	-537.72	571.51	160.45	-499.18	656.51	116.63	-472	500.82	163.35	-463.39	523.39	296.31	-521.67	371.3	155.16	-463.34	279.49	176.07	-525.63	295.01	165.39	-460.11	356.84	166.91	-524.69	99.687	196.58	-508.82	96.741	289.84	-595.84	69.868	251.12	-580.42	46.187	284.51	-595.04	39.23	224.51	-423.83	42.769	164.84	-381.8	47.303	273.19	-335.59	66.224	211.13	-701.97	1462.7	290.75	-734.32	1191.5	277
